<svg width="301" height="304" viewBox="0 0 301 304" fill="none" xmlns="http://www.w3.org/2000/svg">
    <path d="M97.2031 279.862H76.4766L71.6641 266.846H44.8672L39.7266 279.862H19.2188L47.9297 205.213H69.0938L97.2031 279.862ZM66.4141 252.08L58.375 228.291L50.2266 252.08H66.4141ZM157.523 255.143C157.523 267.757 151.982 275.979 140.898 279.807C137.034 281.156 132.878 281.83 128.43 281.83C119.096 281.83 110.438 279.005 102.453 273.354L110.766 257.713C116.599 262.963 122.305 265.588 127.883 265.588C130.398 265.588 132.531 265.005 134.281 263.838C136.323 262.526 137.344 260.666 137.344 258.26C137.344 256.072 136.214 254.25 133.953 252.791C132.276 251.697 129.451 250.585 125.477 249.455C120.664 248.033 117.638 247.049 116.398 246.502C114.43 245.664 112.753 244.679 111.367 243.549C107.393 240.268 105.406 235.309 105.406 228.674C105.406 221.747 107.466 216.005 111.586 211.447C116.398 206.088 122.815 203.408 130.836 203.408C138.893 203.408 146.786 205.432 154.516 209.479L146.75 224.572C142.521 221.291 138.255 219.651 133.953 219.651C131.875 219.651 130.016 220.179 128.375 221.237C126.516 222.44 125.586 224.044 125.586 226.049C125.586 228.018 126.807 229.713 129.25 231.135C130.344 231.791 133.625 232.921 139.094 234.526C145.948 236.531 150.833 239.375 153.75 243.057C156.266 246.192 157.523 250.221 157.523 255.143ZM260.008 279.862H240.594L235.07 236.877L217.023 279.862H209.312L192.086 236.877L185.742 279.862H166.438L179.125 205.213H198.266L213.414 245.026L229.438 205.213H248.742L260.008 279.862Z" fill="#97B6C0"/>
    <path d="M76 0.861542H237.745C243.097 0.861542 248.226 3.00674 251.985 6.81729L294.239 49.659C297.931 53.4015 300 58.4467 300 63.7033V282.862C300 293.907 291.046 302.862 280 302.862H76C64.9543 302.862 56 293.907 56 282.862V20.8615C56 9.81585 64.9543 0.861542 76 0.861542Z" fill="#97B6C0" stroke="black"/>
    <path d="M102.203 282.862H81.4766L76.6641 269.846H49.8672L44.7266 282.862H24.2188L52.9297 208.213H74.0938L102.203 282.862ZM71.4141 255.08L63.375 231.291L55.2266 255.08H71.4141ZM162.523 258.143C162.523 270.757 156.982 278.979 145.898 282.807C142.034 284.156 137.878 284.83 133.43 284.83C124.096 284.83 115.438 282.005 107.453 276.354L115.766 260.713C121.599 265.963 127.305 268.588 132.883 268.588C135.398 268.588 137.531 268.005 139.281 266.838C141.323 265.526 142.344 263.666 142.344 261.26C142.344 259.072 141.214 257.25 138.953 255.791C137.276 254.697 134.451 253.585 130.477 252.455C125.664 251.033 122.638 250.049 121.398 249.502C119.43 248.664 117.753 247.679 116.367 246.549C112.393 243.268 110.406 238.309 110.406 231.674C110.406 224.747 112.466 219.005 116.586 214.447C121.398 209.088 127.815 206.408 135.836 206.408C143.893 206.408 151.786 208.432 159.516 212.479L151.75 227.572C147.521 224.291 143.255 222.651 138.953 222.651C136.875 222.651 135.016 223.179 133.375 224.237C131.516 225.44 130.586 227.044 130.586 229.049C130.586 231.018 131.807 232.713 134.25 234.135C135.344 234.791 138.625 235.921 144.094 237.526C150.948 239.531 155.833 242.375 158.75 246.057C161.266 249.192 162.523 253.221 162.523 258.143ZM265.008 282.862H245.594L240.07 239.877L222.023 282.862H214.312L197.086 239.877L190.742 282.862H171.438L184.125 208.213H203.266L218.414 248.026L234.438 208.213H253.742L265.008 282.862Z" fill="white"/>
    <path d="M240.96 62.2203C239.668 62.3783 238.571 61.2786 238.733 59.9866L245.444 6.39971C245.651 4.74716 247.669 4.05672 248.845 5.23613L295.741 52.2718C296.917 53.4512 296.22 55.4671 294.567 55.6691L240.96 62.2203Z" fill="#6C98A6"/>
    </svg>
    