<svg width="160" height="61" viewBox="0 0 160 61" fill="none" xmlns="http://www.w3.org/2000/svg">
<path d="M30.2081 8.9123L42.1527 14.5898C42.9953 14.9903 43.5416 15.9093 43.5416 16.926V30.2771C43.5416 35.2021 41.3971 39.8239 37.7836 42.6865L30.1639 48.7229C28.5703 49.9854 26.4295 49.9854 24.8359 48.7229L17.2162 42.6865C13.6028 39.8239 11.4583 35.2021 11.4583 30.2771V16.926C11.4583 15.9092 12.0046 14.9903 12.8472 14.5898L24.7917 8.9123C26.5211 8.09027 28.4787 8.09027 30.2081 8.9123Z" fill="#222C52"/>
<path d="M58.9946 37H56.5825V33.7344H48.103V37H45.6909V30.3481C45.6909 29.3771 45.8579 28.4834 46.1919 27.667C46.5259 26.8506 46.9897 26.1486 47.5835 25.561C48.1772 24.9735 48.8792 24.5158 49.6895 24.188C50.4997 23.8602 51.3841 23.6963 52.3428 23.6963H57.7793C57.9463 23.6963 58.104 23.7272 58.2524 23.7891C58.4009 23.8509 58.5308 23.9375 58.6421 24.0488C58.7534 24.1602 58.84 24.29 58.9019 24.4385C58.9637 24.5869 58.9946 24.7446 58.9946 24.9116V37ZM48.103 31.3223H56.5825V26.1084H52.3428C52.2686 26.1084 52.1108 26.1208 51.8696 26.1455C51.6346 26.1641 51.3594 26.2166 51.0439 26.3032C50.7347 26.3898 50.4069 26.5228 50.0605 26.7021C49.7142 26.8815 49.3957 27.1289 49.105 27.4443C48.8143 27.7598 48.5731 28.1556 48.3813 28.6318C48.1958 29.1019 48.103 29.674 48.103 30.3481V31.3223ZM72.8086 31.5635H65.1826V29.1328H72.8086V31.5635ZM73.8848 26.1084H64.2178V37H61.8057V24.9116C61.8057 24.7446 61.8366 24.5869 61.8984 24.4385C61.9603 24.29 62.0438 24.1602 62.1489 24.0488C62.2603 23.9375 62.3901 23.8509 62.5386 23.7891C62.687 23.7272 62.8478 23.6963 63.021 23.6963H73.8848V26.1084ZM86.771 31.5635H79.1543V29.1328H86.771V31.5635ZM87.8564 37H79.1543C78.8203 37 78.4554 36.9412 78.0596 36.8237C77.6637 36.7062 77.2957 36.5145 76.9556 36.2485C76.6216 35.9764 76.3402 35.627 76.1113 35.2002C75.8887 34.7673 75.7773 34.2384 75.7773 33.6138V24.9116C75.7773 24.7446 75.8083 24.5869 75.8701 24.4385C75.932 24.29 76.0155 24.1602 76.1206 24.0488C76.2319 23.9375 76.3618 23.8509 76.5103 23.7891C76.6587 23.7272 76.8195 23.6963 76.9927 23.6963H87.8564V26.1084H78.1895V33.6138C78.1895 33.9292 78.2729 34.1704 78.4399 34.3374C78.6069 34.5044 78.8512 34.5879 79.1729 34.5879H87.8564V37ZM113.36 23.6963L111.133 36.165C111.084 36.4124 110.972 36.6258 110.799 36.8052C110.626 36.9845 110.416 37.099 110.168 37.1484C109.915 37.1917 109.674 37.1639 109.445 37.0649C109.222 36.966 109.046 36.8114 108.916 36.6011L104.5 29.3462L100.075 36.6011C99.9696 36.7804 99.8242 36.9196 99.6387 37.0186C99.4593 37.1175 99.2645 37.167 99.0542 37.167C98.7635 37.167 98.5068 37.0742 98.2842 36.8887C98.0615 36.7031 97.9255 36.4619 97.876 36.165L95.6309 23.6963H98.0801L99.6758 32.4819L103.479 26.4146C103.585 26.2352 103.727 26.096 103.906 25.9971C104.092 25.8981 104.29 25.8486 104.5 25.8486C104.71 25.8486 104.905 25.8981 105.084 25.9971C105.264 26.096 105.412 26.2352 105.53 26.4146L109.315 32.4819L110.911 23.6963H113.36ZM128.333 37H125.921V33.7344H117.442V37H115.03V30.3481C115.03 29.3771 115.197 28.4834 115.531 27.667C115.865 26.8506 116.329 26.1486 116.922 25.561C117.516 24.9735 118.218 24.5158 119.028 24.188C119.839 23.8602 120.723 23.6963 121.682 23.6963H127.118C127.285 23.6963 127.443 23.7272 127.591 23.7891C127.74 23.8509 127.87 23.9375 127.981 24.0488C128.092 24.1602 128.179 24.29 128.241 24.4385C128.303 24.5869 128.333 24.7446 128.333 24.9116V37ZM117.442 31.3223H125.921V26.1084H121.682C121.607 26.1084 121.45 26.1208 121.208 26.1455C120.973 26.1641 120.698 26.2166 120.383 26.3032C120.074 26.3898 119.746 26.5228 119.399 26.7021C119.053 26.8815 118.735 27.1289 118.444 27.4443C118.153 27.7598 117.912 28.1556 117.72 28.6318C117.535 29.1019 117.442 29.674 117.442 30.3481V31.3223ZM144.439 28.168C144.439 28.7184 144.371 29.2101 144.235 29.6431C144.099 30.076 143.913 30.4595 143.678 30.7935C143.449 31.1213 143.183 31.4027 142.88 31.6377C142.577 31.8727 142.259 32.0675 141.925 32.2222C141.597 32.3706 141.263 32.4788 140.923 32.5469C140.589 32.6149 140.273 32.6489 139.977 32.6489L145.014 37H141.285L136.256 32.6489H134.521V30.2368H139.977C140.28 30.2121 140.555 30.1502 140.802 30.0513C141.056 29.9461 141.272 29.807 141.452 29.6338C141.637 29.4606 141.779 29.2534 141.878 29.0122C141.977 28.7648 142.027 28.4834 142.027 28.168V26.6465C142.027 26.5104 142.008 26.4084 141.971 26.3403C141.94 26.2661 141.897 26.2135 141.841 26.1826C141.792 26.1455 141.736 26.1239 141.674 26.1177C141.619 26.1115 141.566 26.1084 141.517 26.1084H133.557V37H131.145V24.9116C131.145 24.7446 131.175 24.5869 131.237 24.4385C131.299 24.29 131.383 24.1602 131.488 24.0488C131.599 23.9375 131.729 23.8509 131.877 23.7891C132.026 23.7272 132.187 23.6963 132.36 23.6963H141.517C142.055 23.6963 142.509 23.7952 142.88 23.9932C143.251 24.1849 143.551 24.4292 143.78 24.7261C144.015 25.0168 144.182 25.3322 144.281 25.6724C144.386 26.0125 144.439 26.3311 144.439 26.6279V28.168Z" fill="#222C52"/>
<path d="M138.544 39.1344L138.58 38.9249L151.143 22.4745L147.409 21.8391C146.292 21.6489 145.362 21.6766 144.618 21.922C143.885 22.1606 143.281 22.5778 142.808 23.1735C142.344 23.7623 141.955 24.4823 141.641 25.3334L141.419 25.2956L142.195 20.7362L155.492 22.9991L155.456 23.2086L142.893 39.659L147.354 40.4181C148.479 40.6097 149.41 40.5779 150.147 40.3229C150.893 40.0611 151.504 39.6028 151.979 38.9482C152.463 38.2868 152.876 37.4484 153.218 36.433L153.44 36.4708L152.58 41.5231L138.544 39.1344Z" fill="#AF1C5A"/>
<path d="M42.1543 33.5518C42.1543 34.5794 42.0208 35.507 41.7539 36.3345C41.5003 37.1486 41.16 37.8693 40.7329 38.4966C40.3058 39.1239 39.8053 39.6577 39.2314 40.0981C38.6576 40.5386 38.0636 40.8989 37.4497 41.1792C36.8358 41.4595 36.2085 41.6663 35.5679 41.7998C34.9406 41.9333 34.3467 42 33.7861 42H13.7065V36.7949H33.7861C34.7871 36.7949 35.5612 36.5013 36.1084 35.9141C36.6689 35.3268 36.9492 34.5394 36.9492 33.5518C36.9492 33.0713 36.8758 32.6309 36.729 32.2305C36.5822 31.8301 36.3687 31.4831 36.0884 31.1895C35.8215 30.8958 35.4878 30.6689 35.0874 30.5088C34.7004 30.3486 34.2666 30.2686 33.7861 30.2686H21.8145C20.9736 30.2686 20.0661 30.1217 19.0918 29.8281C18.1175 29.5212 17.21 29.034 16.3691 28.3667C15.5417 27.6994 14.8477 26.8252 14.2871 25.7441C13.7399 24.6631 13.4663 23.3418 13.4663 21.7803C13.4663 20.2188 13.7399 18.9041 14.2871 17.8364C14.8477 16.7554 15.5417 15.8812 16.3691 15.2139C17.21 14.5332 18.1175 14.0461 19.0918 13.7524C20.0661 13.4455 20.9736 13.292 21.8145 13.292H39.5317V18.4971H21.8145C20.8268 18.4971 20.0527 18.7974 19.4922 19.3979C18.945 19.9985 18.6714 20.7926 18.6714 21.7803C18.6714 22.7812 18.945 23.5754 19.4922 24.1626C20.0527 24.7365 20.8268 25.0234 21.8145 25.0234H33.7861H33.8262C34.3867 25.0368 34.9806 25.1169 35.6079 25.2637C36.2352 25.3971 36.8558 25.6107 37.4697 25.9043C38.097 26.1979 38.6909 26.5716 39.2515 27.0254C39.812 27.4658 40.3058 27.9997 40.7329 28.627C41.1733 29.2542 41.5203 29.9749 41.7739 30.7891C42.0275 31.6032 42.1543 32.5241 42.1543 33.5518Z" fill="#222C52"/>
<path d="M42.1543 33.5518C42.1543 34.5794 42.0208 35.507 41.7539 36.3345C41.5003 37.1486 41.16 37.8693 40.7329 38.4966C40.3058 39.1239 39.8053 39.6577 39.2314 40.0981C38.6576 40.5386 38.0636 40.8989 37.4497 41.1792C36.8358 41.4595 36.2085 41.6663 35.5679 41.7998C34.9406 41.9333 34.3467 42 33.7861 42H13.7065V36.7949H33.7861C34.7871 36.7949 35.5612 36.5013 36.1084 35.9141C36.6689 35.3268 36.9492 34.5394 36.9492 33.5518C36.9492 33.0713 36.8758 32.6309 36.729 32.2305C36.5822 31.8301 36.3687 31.4831 36.0884 31.1895C35.8215 30.8958 35.4878 30.6689 35.0874 30.5088C34.7004 30.3486 34.2666 30.2686 33.7861 30.2686H21.8145C20.9736 30.2686 20.0661 30.1217 19.0918 29.8281C18.1175 29.5212 17.21 29.034 16.3691 28.3667C15.5417 27.6994 14.8477 26.8252 14.2871 25.7441C13.7399 24.6631 13.4663 23.3418 13.4663 21.7803C13.4663 20.2188 13.7399 18.9041 14.2871 17.8364C14.8477 16.7554 15.5417 15.8812 16.3691 15.2139C17.21 14.5332 18.1175 14.0461 19.0918 13.7524C20.0661 13.4455 20.9736 13.292 21.8145 13.292H39.5317V18.4971H21.8145C20.8268 18.4971 20.0527 18.7974 19.4922 19.3979C18.945 19.9985 18.6714 20.7926 18.6714 21.7803C18.6714 22.7812 18.945 23.5754 19.4922 24.1626C20.0527 24.7365 20.8268 25.0234 21.8145 25.0234H33.7861H33.8262C34.3867 25.0368 34.9806 25.1169 35.6079 25.2637C36.2352 25.3971 36.8558 25.6107 37.4697 25.9043C38.097 26.1979 38.6909 26.5716 39.2515 27.0254C39.812 27.4658 40.3058 27.9997 40.7329 28.627C41.1733 29.2542 41.5203 29.9749 41.7739 30.7891C42.0275 31.6032 42.1543 32.5241 42.1543 33.5518Z" fill="white"/>
<path d="M47 42L147 42M47 20L147 20" stroke="white"/>
</svg>
