<svg width="367" height="69" viewBox="0 0 367 69" fill="none" xmlns="http://www.w3.org/2000/svg">
<path d="M125.208 11.9123L137.153 17.5898C137.996 17.9903 138.542 18.9092 138.542 19.926V33.2771C138.542 38.2021 136.397 42.8239 132.784 45.6865L125.164 51.7229C123.571 52.9853 121.43 52.9853 119.836 51.7229L112.216 45.6865C108.603 42.8239 106.458 38.2021 106.458 33.2771V19.926C106.458 18.9092 107.005 17.9903 107.847 17.5898L119.792 11.9123C121.521 11.0902 123.479 11.0902 125.208 11.9123Z" fill="white"/>
<path d="M154.393 43H149.718V37.325H146.543V43H141.868V27.2L144.118 24.95H152.143L154.393 27.2V43ZM149.718 32.65V29.625H146.543V32.65H149.718ZM168.041 29.625H160.191V32.65H166.066V37.325H160.191V43H155.516V27.2L157.766 24.95H168.041V29.625ZM180.834 43H170.559L168.309 40.75V27.2L170.559 24.95H180.834V29.625H172.984V31.65H178.859V36.325H172.984V38.325H180.834V43ZM207.426 40.75L205.201 43H201.726L199.501 40.75L197.251 43H193.801L191.551 40.75V24.95H196.051V38.325H197.151V30.825L199.501 28.325L201.826 30.825V38.325H202.926V24.95H207.426V40.75ZM222.386 43H217.711V37.325H214.536V43H209.861V27.2L212.111 24.95H220.136L222.386 27.2V43ZM217.711 32.65V29.625H214.536V32.65H217.711ZM236.034 43H231.459V37.125H228.084V43H223.509V24.95H233.784L236.034 27.2V32.2L233.784 34.45L236.034 36.7V43ZM231.459 30.825V29.625H228.084V30.825H231.459Z" fill="white"/>
<path d="M234.342 41.991L234.378 41.7815L246.941 25.3311L243.207 24.6957C242.09 24.5055 241.159 24.5332 240.416 24.7786C239.682 25.0172 239.079 25.4343 238.605 26.03C238.142 26.6189 237.753 27.3389 237.439 28.19L237.217 28.1522L237.993 23.5928L251.289 25.8557L251.254 26.0651L238.691 42.5155L243.151 43.2747C244.277 43.4663 245.208 43.4345 245.945 43.1795C246.691 42.9176 247.301 42.4594 247.776 41.8048C248.261 41.1434 248.674 40.305 249.016 39.2896L249.238 39.3274L248.378 44.3797L234.342 41.991Z" fill="#AF1C5A"/>
<path d="M109.359 44V37.358H127.727V33.832H115.017C113.568 33.832 112.297 33.3263 111.204 32.315C109.974 31.1943 109.359 29.855 109.359 28.297V21.655C109.496 20.425 110.029 19.3863 110.958 18.539C111.559 17.965 112.202 17.596 112.885 17.432C113.596 17.268 114.511 17.186 115.632 17.186H134.369V24.361H117.477V27.928H129.777C130.16 27.928 130.775 27.9553 131.622 28.01C132.497 28.0373 133.276 28.3107 133.959 28.83C135.216 29.814 135.845 31.0987 135.845 32.684V38.916C135.845 39.7907 135.722 40.5423 135.476 41.171C135.257 41.7723 134.861 42.36 134.287 42.934C133.822 43.3713 133.317 43.672 132.77 43.836C132.223 43.9727 131.595 44.041 130.884 44.041C130.529 44.041 130.214 44.0273 129.941 44C129.668 44 129.422 44 129.203 44H109.359Z" fill="#222C52"/>
<path d="M142 45L242 45M142 23L242 23" stroke="#222C52"/>
</svg>
